<svg width="120" height="36" viewBox="0 0 120 36" fill="none" xmlns="http://www.w3.org/2000/svg">
<path d="M74.1456 6.69146C75.9729 6.69146 77.4543 5.19352 77.4543 3.34573C77.4543 1.49793 75.9729 0 74.1456 0C72.3183 0 70.8369 1.49793 70.8369 3.34573C70.8369 5.19352 72.3183 6.69146 74.1456 6.69146Z" fill="#59DEBE"/>
<path d="M62.5141 8.81372H57.8101V28.9094H62.5141V19.771C62.5141 18.8954 62.7228 18.0235 63.086 17.2155C63.6634 15.9311 64.658 14.8854 65.9048 14.2522C67.0358 13.6778 68.3125 13.4743 69.5575 13.6644V8.85258C67.5758 8.68352 65.576 9.06863 63.7826 9.97935C63.3412 10.2037 62.9178 10.4569 62.5141 10.737V8.81372Z" fill="#190A35"/>
<path fill-rule="evenodd" clip-rule="evenodd" d="M50.7878 28.9092H55.4919V8.81348H50.7878V9.36501C49.0007 8.09948 46.8246 7.35693 44.4773 7.35693C38.3938 7.35693 33.4624 12.3435 33.4624 18.4949C33.4624 24.6464 38.3938 29.633 44.4773 29.633C46.8246 29.633 49.0007 28.8905 50.7878 27.625V28.9092ZM44.4773 24.7242C47.8792 24.7242 50.6374 21.9351 50.6374 18.4949C50.6374 15.0548 47.8792 12.2658 44.4773 12.2658C41.0751 12.2658 38.3169 15.0548 38.3169 18.4949C38.3169 21.9351 41.0751 24.7242 44.4773 24.7242Z" fill="#190A35"/>
<path fill-rule="evenodd" clip-rule="evenodd" d="M100.075 18.4949C100.075 24.6464 95.144 29.633 89.0608 29.633C82.9773 29.633 78.0459 24.6464 78.0459 18.4949C78.0459 12.3435 82.9773 7.35693 89.0608 7.35693C95.144 7.35693 100.075 12.3435 100.075 18.4949ZM89.0605 24.7242C92.4627 24.7242 95.2209 21.9351 95.2209 18.4949C95.2209 15.0548 92.4627 12.2658 89.0605 12.2658C85.6586 12.2658 82.9004 15.0548 82.9004 18.4949C82.9004 21.9351 85.6586 24.7242 89.0605 24.7242Z" fill="#190A35"/>
<path d="M76.4825 8.81372H71.7785V29.8116C71.7785 30.1914 71.6293 30.5554 71.3637 30.8242C71.098 31.0927 70.738 31.2435 70.3624 31.2435C69.9867 31.2435 69.6265 31.0927 69.361 30.8242C69.0954 30.5554 68.9462 30.1914 68.9462 29.8116H64.2422C64.2422 31.453 64.8871 33.027 66.0348 34.1876C67.1825 35.3481 68.7391 36.0002 70.3624 36.0002C71.9856 36.0002 73.5422 35.3481 74.6899 34.1876C75.8313 33.0336 76.4753 31.4705 76.4825 29.8392C76.4825 29.8331 76.4825 29.8269 76.4825 29.8208V29.8116V8.81372Z" fill="#190A35"/>
<path d="M112.254 7.63525C110.089 7.63525 107.949 8.52995 106.448 9.99374V8.85731H101.754V28.9095H106.448V16.4555C106.448 13.8643 108.525 11.7638 111.088 11.7638C113.65 11.7638 115.728 13.8643 115.728 16.4555V28.9095H120V14.9237C120 10.8983 116.234 7.63525 112.254 7.63525Z" fill="#190A35"/>
<path d="M24.3612 7.92002C24.0273 7.87874 23.687 7.85767 23.342 7.85767H22.4362C19.5679 7.85767 17.0377 9.323 15.5385 11.5539C14.4033 9.35703 12.1287 7.85767 9.50778 7.85767C7.63245 7.85767 5.9343 8.62524 4.70406 9.86684V8.83909H0V28.9091H4.70406V17.1753C4.70406 16.8663 4.73511 16.5649 4.79395 16.2735C5.20649 14.2349 6.99019 12.7015 9.12824 12.7015C11.275 12.7015 13.0648 14.2479 13.4675 16.299C13.5231 16.5825 13.5522 16.8753 13.5522 17.1753V28.9091H18.4651V16.986C18.4651 16.3945 18.5837 15.8309 18.798 15.3182C19.4413 13.7805 20.9471 12.7015 22.7022 12.7015C23.291 12.7015 23.8518 12.823 24.3612 13.0425V7.92002Z" fill="#190A35"/>
<path d="M26.939 22.406V28.9084H31.6756V16.2841C31.6756 12.9373 29.7462 10.0462 26.9509 8.68604V22.406H26.939Z" fill="#190A35"/>
</svg>
